<?xml version="1.0" ?><svg style="enable-background:new 0 0 48 48;" version="1.1" viewBox="0 0 48 48" xml:space="preserve" xmlns="http://www.w3.org/2000/svg" xmlns:xlink="http://www.w3.org/1999/xlink"><g id="Icons"><g><path d="M34.441,35.437H13.559c-1.2449,0-2.2541-1.0092-2.2541-2.2541V19.4751h25.3902v13.7078    C36.6951,34.4278,35.6859,35.437,34.441,35.437z" style="fill:#F4F4F4;"/><path d="M34.1464,14.5971H13.8533c-1.4075,0-2.5484,1.141-2.5484,2.5485v2.3295h25.39v-2.3295    C36.6949,15.7381,35.5539,14.5971,34.1464,14.5971z" style="fill:#F43734;"/><path d="M15.8018,16.6312L15.8018,16.6312c-0.4633,0-0.8424-0.3791-0.8424-0.8424v-2.3834    c0-0.4633,0.3791-0.8424,0.8424-0.8424l0,0c0.4633,0,0.8424,0.3791,0.8424,0.8424v2.3834    C16.6442,16.2521,16.2651,16.6312,15.8018,16.6312z" style="fill:#DBDBDB;"/><path d="M32.1979,16.6312L32.1979,16.6312c-0.4633,0-0.8424-0.3791-0.8424-0.8424v-2.3834    c0-0.4633,0.3791-0.8424,0.8424-0.8424l0,0c0.4634,0,0.8424,0.3791,0.8424,0.8424v2.3834    C33.0403,16.2521,32.6613,16.6312,32.1979,16.6312z" style="fill:#DBDBDB;"/><path d="M30.5755,29.4687h-2.9981v-3.7094h2.9981c0.1933,0,0.3496-0.1568,0.3496-0.3501    c0-0.1934-0.1563-0.3501-0.3496-0.3501h-2.9981v-1.6299c0-0.1934-0.1562-0.3501-0.3496-0.3501s-0.3496,0.1567-0.3496,0.3501    v1.6299h-5.499v-1.6299c0-0.1934-0.1563-0.3501-0.3496-0.3501c-0.1934,0-0.3497,0.1567-0.3497,0.3501v1.6299h-3.2548    c-0.1934,0-0.3496,0.1567-0.3496,0.3501c0,0.1933,0.1562,0.3501,0.3496,0.3501h3.2548v3.7094h-3.2548    c-0.1934,0-0.3496,0.1568-0.3496,0.3501c0,0.1934,0.1562,0.3501,0.3496,0.3501h3.2548v1.274c0,0.1933,0.1563,0.3501,0.3497,0.3501    c0.1933,0,0.3496-0.1568,0.3496-0.3501v-1.274h5.499v1.274c0,0.1933,0.1562,0.3501,0.3496,0.3501s0.3496-0.1568,0.3496-0.3501    v-1.274h2.9981c0.1933,0,0.3496-0.1567,0.3496-0.3501C30.9251,29.6255,30.7688,29.4687,30.5755,29.4687z M21.3792,29.4687v-3.7094    h5.499v3.7094H21.3792z" style="fill:#DBDBDB;"/></g></g></svg>